# AST/ASF file generated using VICON BodyLanguage
# -----------------------------------------------
:version 1.10
:name VICON
:units
  mass 1.0
  length 0.45
  angle deg
:documentation
   .ast/.asf automatically generated from VICON data using
   VICON BodyBuilder and BodyLanguage model FoxedUp or BRILLIANT.MOD
:root
   order TX TY TZ RX RY RZ
   axis XYZ
   position 0 0 0  
   orientation 0 0 0 
:bonedata
  begin
     id 1 
     name lhipjoint
     direction 0.630082 -0.636569 0.44472 
     length 2.82754 
     axis 0 0 0  XYZ
  end
  begin
     id 2 
     name lfemur
     direction 0.34202 -0.939693 0  
     length 7.26371  
     axis 0 0 20  XYZ
    dof rx ry rz
    limits (-160.0 20.0)
           (-70.0 70.0)
           (-60.0 70.0)
  end
  begin
     id 3 
     name ltibia
     direction 0.34202 -0.939693 0   
     length 7.88616   
     axis 0 0 20   XYZ
    dof rx
    limits (-10.0 170.0)
  end
  begin
     id 4 
     name lfoot
     direction 0.0603448 -0.165796 0.984312   
     length 1.77861   
     axis -90 7.62852e-016 20   XYZ
    dof rx rz
    limits (-45.0 90.0)
           (-70.0 20.0)
  end
  begin
     id 5 
     name ltoes
     direction 1.53577e-011 -4.21876e-011 1   
     length 0.902235   
     axis -90 7.62852e-016 20   XYZ
    dof rx
    limits (-90.0 20.0)
  end
  begin
     id 6 
     name rhipjoint
     direction -0.656778 -0.61817 0.431866   
     length 2.9117  
     axis 0 0 0  XYZ 
  end
  begin
     id 7 
     name rfemur
     direction -0.34202 -0.939693 0   
     length 6.81603   
     axis 0 0 -20   XYZ
    dof rx ry rz
    limits (-160.0 20.0)
           (-70.0 70.0)
           (-70.0 60.0)
  end
  begin
     id 8 
     name rtibia
     direction -0.34202 -0.939693 0   
     length 8.05997   
     axis 0 0 -20   XYZ
    dof rx
    limits (-10.0 170.0)
 end
 begin
     id 9 
     name rfoot
     direction -0.0862404 -0.236944 0.967688   
     length 1.84899  
     axis -90 -7.62852e-016 -20   XYZ
    dof rx rz
    limits (-45.0 90.0)
           (-20.0 70.0)
  end
  begin
     id 10 
     name rtoes
     direction -1.53561e-011 -4.21798e-011 1   
     length 0.931579   
     axis -90 -7.62852e-016 -20   XYZ
    dof rx
    limits (-90.0 20.0)
  end
  begin
     id 11 
     name lowerback
     direction -0.0110203 0.991769 -0.127564   
     length 2.05686   
     axis 0 0 0   XYZ
    dof rx ry rz
    limits (-20.0 45.0)
           (-30.0 30.0)
           (-30.0 30.0)
  end
  begin
     id 12 
     name upperback
     direction 0.0109719 0.99993 -0.00432479   
     length 2.06234   
     axis 0 0 0   XYZ
    dof rx ry rz
    limits (-20.0 45.0)
           (-30.0 30.0)
           (-30.0 30.0)
  end
  begin
     id 13 
     name thorax
     direction 0.0173308 0.998351 0.0547306   
     length 2.09856   
     axis 0 0 0   XYZ
    dof rx ry rz
    limits (-20.0 45.0)
           (-30.0 30.0)
           (-30.0 30.0)
  end
  begin
     id 14 
     name lowerneck
     direction -0.0311736 0.989033 0.144366   
     length 1.98151   
     axis 0 0 0   XYZ
    dof rx ry rz
    limits (-20.0 45.0)
           (-30.0 30.0)
           (-30.0 30.0)
  end
  begin
     id 15 
     name upperneck
     direction 0.0421057 0.975772 -0.214698   
     length 2.01457   
     axis 0 0 0   XYZ
    dof rx ry rz
    limits (-20.0 45.0)
           (-30.0 30.0)
           (-30.0 30.0)
  end
  begin
     id 16
     name head
     direction 0.0136911 0.995958 -0.0887718  
     length 2.03562  
     axis 0 0 0   XYZ
    dof rx ry rz
    limits (-20.0 45.0)
           (-30.0 30.0)
           (-30.0 30.0)
  end
  begin
     id 17 
     name lclavicle
     direction 0.915335 0.396201 0.0720134  
     length 4.16217  
     axis 0 0 0   XYZ
    dof ry rz
    limits (-20.0 10.0)
           (0.0 20.0)
  end
  begin
     id 18 
     name lhumerus
     direction 1 -4.48965e-011 6.383e-018   
     length 4.93042   
     axis -180 -30 -90   XYZ
    dof rx ry rz
    limits (-60.0 90.0)
           (-90.0 90.0)
           (-90.0 90.0)
  end
  begin
     id 19
     name lradius
     direction 1 -4.48972e-011 8.8689e-027   
     length 3.68177   
     axis -180 -30 -90   XYZ
    dof rx
    limits (-10.0 170.0)
  end
  begin
     id 20
     name lwrist
     direction 1 -4.48953e-011 1.17971e-026   
     length 1.84089   
     axis -7.69454e-015 90 90   XYZ
    dof ry
    limits (-180.0 0.0)
 end
  begin
     id 21 
     name lhand
     direction 1 -4.49027e-011 2.35802e-026   
     length 0.721479   
     axis -1.50533e-014 90 90   XYZ
    dof rx rz
    limits (-90.0 90.0)
           (-45.0 45.0)
  end
  begin
     id 22 
     name lfingers
     direction 1 -4.48915e-011 4.72027e-026   
     length 0.581675   
     axis -3.01059e-014 90 90   XYZ
    dof rx
    limits (0.0 90.0)
  end
  begin
     id 23
     name lthumb
     direction 0.707107 -6.34948e-011 0.707107   
     length 0.835172   
     axis -90 45 -5.12164e-014   XYZ
    dof rx rz
    limits (-45.0 45.0)
           (-45.0 45.0)
  end
  begin
     id 24 
     name rclavicle
     direction -0.882781 0.469197 0.0234974   
     length 3.95647  
     axis 0 0 0   XYZ 
    dof ry rz
    limits (-10.0 20.0)
           (-20.0 0.0)
  end
  begin
     id 25 
     name rhumerus
     direction -1 -4.48965e-011 -1.54906e-018  
     length 5.07905   
     axis -180 30 90   XYZ
    dof rx ry rz
    limits (-90.0 60.0)
           (-90.0 90.0)
           (-90.0 90.0)
  end
  begin
     id 26 
     name rradius
     direction -1 -4.48972e-011 5.47489e-027   
     length 3.54394   
     axis -180 30 90   XYZ
    dof rx
    limits (-10.0 170.0)
  end
  begin
     id 27 
     name rwrist
     direction -1 -4.48955e-011 1.17969e-026   
     length 1.77197   
     axis -7.69454e-015 -90 -90   XYZ
    dof ry
    limits (-180.0 0.0)
  end
  begin
     id 28
     name rhand
     direction -1 -4.48982e-011 2.35888e-026   
     length 0.681156   
     axis -1.50533e-014 -90 -90   XYZ
    dof rx rz
    limits (-90.0 90.0)
           (-45.0 45.0)
  end
  begin
     id 29
     name rfingers
     direction -1 -4.48955e-011 4.71877e-026   
     length 0.549165   
     axis -3.01059e-014 -90 -90   XYZ
    dof rx
    limits (0.0 90.0)
  end
  begin
     id 30
     name rthumb
     direction -0.707107 -6.3491e-011 0.707107   
     length 0.788495   
     axis -90 -45 5.12164e-014   XYZ
    dof rx rz
    limits (-45.0 45.0)
           (-45.0 45.0)
  end
:hierarchy
  begin
    root lhipjoint rhipjoint lowerback
    lhipjoint lfemur
    lfemur ltibia
    ltibia lfoot
    lfoot ltoes
    rhipjoint rfemur
    rfemur rtibia
    rtibia rfoot
    rfoot rtoes
    lowerback upperback
    upperback thorax
    thorax lowerneck lclavicle rclavicle
    lowerneck upperneck
    upperneck head
    lclavicle lhumerus
    lhumerus lradius
    lradius lwrist
    lwrist lhand lthumb
    lhand lfingers
    rclavicle rhumerus
    rhumerus rradius
    rradius rwrist
    rwrist rhand rthumb
    rhand rfingers
  end

#!OML:ASF H:\Bending\Project 1\Capture day 1\Session 1\Subject.ASF
:FULLY-SPECIFIED
:DEGREES
384
root -9.77591 17.9042 -16.3864 38.9738 91.9453 35.1178
lowerback 7.30599 -0.0645001 -0.622359
upperback -1.75788 -0.00900137 2.12172
thorax -5.93785 0.0648152 2.5663
lowerneck -23.5272 -3.40728 -5.58082
upperneck 32.9694 -2.98724 2.34084
head 15.7644 -1.40166 1.42046
rclavicle 1.41634e-015 1.82882e-014
rhumerus -46.3048 -6.96426 -70.5403
rradius 37.3001
rwrist 6.22354
rhand -15.3753 -12.4081
rfingers 7.12502
rthumb 10.8028 -42.1103
lclavicle 1.41634e-015 1.82882e-014
lhumerus -39.9811 -1.31413 88.0487
lradius 39.7169
lwrist 26.0984
lhand -33.4713 9.96097
lfingers 7.12502
lthumb -6.66918 39.8359
rfemur 5.79583 4.34945 14.4005
rtibia 1.43125e-014
rfoot -7.25117 -19.4932
rtoes -17.872
lfemur -8.42405 -25.7976 -13.258
ltibia 22.9209
lfoot -34.121 26.4494
ltoes -23.8509
385
root -9.77775 17.9035 -16.3851 39.1694 91.9753 35.3594
lowerback 7.32229 -0.0829338 -0.620288
upperback -1.76773 -0.0331908 2.12184
thorax -5.95633 0.0530592 2.56849
lowerneck -23.5072 -3.37242 -5.50797
upperneck 32.9125 -2.96074 2.31583
head 15.7284 -1.38574 1.40178
rclavicle 4.72114e-016 -6.36111e-015
rhumerus -46.3301 -6.78664 -70.6753
rradius 37.4361
rwrist 6.05471
rhand -15.4045 -12.7302
rfingers 7.12502
rthumb 10.7746 -42.4338
lclavicle 4.72114e-016 -6.36111e-015
lhumerus -40.1053 -1.52424 88.1994
lradius 39.7174
lwrist 26.0964
lhand -33.4681 10.1541
lfingers 7.12502
lthumb -6.66612 40.0292
rfemur 5.82967 4.33512 14.4509
rtibia 2.06736e-014
rfoot -7.04121 -19.5774
rtoes -18.569
lfemur -8.40681 -25.4583 -13.2207
ltibia 22.9255
lfoot -33.7674 26.3514
ltoes -24.4936
386
root -9.78019 17.9032 -16.384 39.5986 92.0078 35.8302
lowerback 7.34419 -0.0834512 -0.577064
upperback -1.78112 -0.0302424 2.10836
thorax -5.98303 0.0530163 2.52993
lowerneck -23.4723 -3.3614 -5.46376
upperneck 32.8531 -2.97352 2.33162
head 15.6915 -1.38362 1.39768
rclavicle -1.49089e-016 -2.78299e-015
rhumerus -46.3789 -6.65606 -70.7855
rradius 37.5268
rwrist 5.96721
rhand -15.4317 -13.0869
rfingers 7.12502
rthumb 10.7484 -42.7919
lclavicle -1.49089e-016 -2.78299e-015
lhumerus -40.2206 -1.72333 88.3398
lradius 39.6549
lwrist 25.918
lhand -33.4963 10.2687
lfingers 7.12502
lthumb -6.69329 40.1429
rfemur 5.86049 4.32371 14.506
rtibia 4.77083e-015
rfoot -6.8974 -19.634
rtoes -18.9871
lfemur -8.39525 -25.1389 -13.1734
ltibia 22.9333
lfoot -33.4527 26.2449
ltoes -25.0423
387
root -9.78283 17.9034 -16.3829 40.0562 92.0364 36.3264
lowerback 7.36707 -0.0599314 -0.50409
upperback -1.79241 0.00700101 2.08391
thorax -6.00963 0.0685326 2.45881
lowerneck -23.4359 -3.37863 -5.46909
upperneck 32.7965 -3.02238 2.38837
head 15.6598 -1.39664 1.41239
rclavicle 6.4605e-015 -3.97569e-015
rhumerus -46.4358 -6.59366 -70.849
rradius 37.5434
rwrist 5.96135
rhand -15.4566 -13.3658
rfingers 7.12502
rthumb 10.7244 -43.072
lclavicle 6.4605e-015 -3.97569e-015
lhumerus -40.3122 -1.93136 88.4913
lradius 39.5369
lwrist 25.6809
lhand -33.5467 10.3068
lfingers 7.12502
lthumb -6.74198 40.1794
rfemur 5.89605 4.31612 14.5539
rtibia 1.11319e-014
rfoot -6.86747 -19.6459
rtoes -18.9581
lfemur -8.38289 -24.8429 -13.128
ltibia 22.9385
lfoot -33.1654 26.1404
ltoes -25.5113
388
root -9.78518 17.904 -16.3812 40.3637 92.0593 36.6698
lowerback 7.38704 -0.0189365 -0.423535
upperback -1.79849 0.0683037 2.05962
thorax -6.03003 0.0955321 2.38046
lowerneck -23.4051 -3.41376 -5.52615
upperneck 32.7403 -3.08443 2.46932
head 15.6323 -1.41817 1.44362
rclavicle 5.96354e-016 -3.97569e-016
rhumerus -46.4819 -6.58788 -70.8586
rradius 37.477
rwrist 6.03688
rhand -15.4574 -13.4894
rfingers 7.12502
rthumb 10.7236 -43.1957
lclavicle 5.96354e-016 -3.97569e-016
lhumerus -40.3787 -2.14379 88.6692
lradius 39.3826
lwrist 25.4906
lhand -33.6097 10.2895
lfingers 7.12502
lthumb -6.80277 40.1602
rfemur 5.94054 4.30952 14.5886
rtibia 3.18055e-015
rfoot -6.95452 -19.6146
rtoes -18.4864
lfemur -8.36971 -24.5677 -13.0908
ltibia 22.9406
lfoot -32.89 26.0431
ltoes -25.923
389
root -9.78691 17.9047 -16.379 40.4559 92.079 36.794
lowerback 7.40079 0.0226878 -0.361239
upperback -1.79959 0.12966 2.05096
thorax -6.04156 0.123478 2.32866
lowerneck -23.3778 -3.44607 -5.61901
upperneck 32.6755 -3.12677 2.54944
head 15.6016 -1.43635 1.48439
rclavicle 5.31749e-015 -3.97569e-015
rhumerus -46.5039 -6.58414 -70.8324
rradius 37.3469
rwrist 6.18506
rhand -15.4077 -13.4465
rfingers 7.12502
rthumb 10.7715 -43.1503
lclavicle 5.31749e-015 -3.97569e-015
lhumerus -40.4333 -2.33474 88.8753
lradius 39.2202
lwrist 25.4118
lhand -33.6758 10.2493
lfingers 7.12502
lthumb -6.86662 40.118
rfemur 5.99235 4.30014 14.6116
rtibia 3.81667e-014
rfoot -7.12185 -19.556
rtoes -17.7268
lfemur -8.36123 -24.3139 -13.0606
ltibia 22.945
lfoot -32.6251 25.9513
ltoes -26.2709
